<svg width="195" height="128" viewBox="0 0 195 128" fill="none" xmlns="http://www.w3.org/2000/svg">
<path d="M45.2122 122.629H48.7196C48.9879 122.629 49.2158 122.704 49.4032 122.853C49.5948 122.998 49.7375 123.191 49.8312 123.434C49.9292 123.673 49.9781 123.926 49.9781 124.194C49.9781 124.552 49.8951 124.876 49.729 125.165C49.5671 125.455 49.3371 125.64 49.039 125.721L50.1059 127.101H48.8346L47.7996 125.76H45.2122V127.101H44.2092V122.629H45.2122ZM48.4768 124.82C48.6386 124.82 48.7622 124.759 48.8473 124.635C48.9368 124.512 48.9815 124.365 48.9815 124.194C48.9815 124.024 48.9368 123.877 48.8473 123.754C48.7622 123.63 48.6386 123.568 48.4768 123.568H45.2122V124.82H48.4768ZM60.7745 122.629H66.3008V123.568H61.7776V124.412H65.9877V125.351H61.7776V126.162H66.3008V127.101H60.7745V122.629ZM76.9718 122.629H78.2304L80.7284 126.085L83.2136 122.629H84.3955L81.15 127.101H80.2237L76.9718 122.629ZM94.4294 124.852C94.4294 124.222 94.5188 123.747 94.6977 123.428C94.8766 123.104 95.1896 122.878 95.6369 122.751C96.0841 122.623 96.7464 122.559 97.6237 122.559C98.5011 122.559 99.1634 122.623 99.6106 122.751C100.058 122.878 100.371 123.104 100.55 123.428C100.729 123.751 100.818 124.226 100.818 124.852C100.818 125.483 100.729 125.96 100.55 126.283C100.371 126.603 100.058 126.829 99.6106 126.961C99.1634 127.088 98.5011 127.152 97.6237 127.152C96.7464 127.152 96.0841 127.088 95.6369 126.961C95.1896 126.829 94.8766 126.603 94.6977 126.283C94.5188 125.96 94.4294 125.483 94.4294 124.852ZM95.4324 124.84C95.4324 125.202 95.4984 125.481 95.6305 125.677C95.7625 125.868 95.984 126.007 96.2949 126.092C96.6058 126.173 97.0487 126.213 97.6237 126.213C98.1987 126.213 98.6417 126.173 98.9526 126.092C99.2635 126.007 99.485 125.868 99.617 125.677C99.749 125.481 99.815 125.202 99.815 124.84C99.815 124.486 99.749 124.216 99.617 124.028C99.485 123.837 99.2635 123.7 98.9526 123.619C98.6417 123.538 98.1987 123.498 97.6237 123.498C97.0487 123.498 96.6058 123.538 96.2949 123.619C95.984 123.7 95.7625 123.837 95.6305 124.028C95.4984 124.216 95.4324 124.486 95.4324 124.84ZM112.491 122.629V126.162H116.19V127.101H111.488V122.629H112.491ZM132.995 124.84C132.995 125.44 132.903 125.904 132.72 126.232C132.537 126.556 132.226 126.788 131.787 126.929C131.353 127.065 130.733 127.133 129.928 127.133C129.123 127.133 128.501 127.065 128.062 126.929C127.628 126.788 127.319 126.556 127.136 126.232C126.953 125.904 126.861 125.44 126.861 124.84V122.629H127.871C127.867 122.663 127.864 123.404 127.864 124.852C127.864 125.206 127.926 125.478 128.05 125.67C128.173 125.858 128.382 125.992 128.676 126.073C128.97 126.154 129.387 126.194 129.928 126.194C130.469 126.194 130.886 126.154 131.18 126.073C131.474 125.992 131.683 125.858 131.806 125.67C131.93 125.478 131.992 125.206 131.992 124.852C131.992 123.404 131.989 122.663 131.985 122.629H132.995V124.84ZM146.028 123.44H143.664V122.629H149.388V123.44H147.031V127.101H146.028V123.44ZM160.055 127.101V122.629H161.058V127.101H160.055ZM171.729 124.852C171.729 124.222 171.818 123.747 171.997 123.428C172.176 123.104 172.489 122.878 172.936 122.751C173.383 122.623 174.046 122.559 174.923 122.559C175.8 122.559 176.463 122.623 176.91 122.751C177.357 122.878 177.67 123.104 177.849 123.428C178.028 123.751 178.117 124.226 178.117 124.852C178.117 125.483 178.028 125.96 177.849 126.283C177.67 126.603 177.357 126.829 176.91 126.961C176.463 127.088 175.8 127.152 174.923 127.152C174.046 127.152 173.383 127.088 172.936 126.961C172.489 126.829 172.176 126.603 171.997 126.283C171.818 125.96 171.729 125.483 171.729 124.852ZM172.732 124.84C172.732 125.202 172.798 125.481 172.93 125.677C173.062 125.868 173.283 126.007 173.594 126.092C173.905 126.173 174.348 126.213 174.923 126.213C175.498 126.213 175.941 126.173 176.252 126.092C176.563 126.007 176.784 125.868 176.916 125.677C177.048 125.481 177.114 125.202 177.114 124.84C177.114 124.486 177.048 124.216 176.916 124.028C176.784 123.837 176.563 123.7 176.252 123.619C175.941 123.538 175.498 123.498 174.923 123.498C174.348 123.498 173.905 123.538 173.594 123.619C173.283 123.7 173.062 123.837 172.93 124.028C172.798 124.216 172.732 124.486 172.732 124.84ZM188.787 122.629H190.135L193.642 126.13V122.629H194.645V127.101H193.265L189.79 123.594V127.101H188.787V122.629Z" fill="white"/>
<path d="M44.2547 76.9765H70.4485V81.428H49.009V85.4252H68.9647V89.8766H49.009V93.7224H70.4485V98.1738H44.2547V76.9765ZM98.9835 98.1738C98.9835 98.1133 98.9835 97.7701 98.9835 97.1442C99.0037 96.5184 99.0138 95.3071 99.0138 93.5104H78.2404C78.2404 95.3071 78.2404 96.5184 78.2404 97.1442C78.2606 97.7701 78.2707 98.1133 78.2707 98.1738H73.4862V87.5146C73.4862 84.5268 73.9101 82.2758 74.758 80.7618C75.6059 79.2275 77.0897 78.1575 79.2095 77.5519C81.3292 76.9462 84.4684 76.6434 88.6271 76.6434C92.7858 76.6434 95.9251 76.9462 98.0448 77.5519C100.165 78.1575 101.648 79.2275 102.496 80.7618C103.344 82.296 103.768 84.547 103.768 87.5146V98.1738H98.9835ZM99.0138 89.059V87.1512C99.0138 85.4756 98.7009 84.1937 98.0751 83.3054C97.4492 82.397 96.3995 81.751 94.9258 81.3674C93.452 80.9838 91.3525 80.792 88.6271 80.792C85.9018 80.792 83.8022 80.9838 82.3285 81.3674C80.8548 81.751 79.805 82.397 79.1792 83.3054C78.5534 84.1937 78.2404 85.4756 78.2404 87.1512V89.059H99.0138ZM111.553 76.9765H128.178C129.449 76.9765 130.53 77.3298 131.418 78.0364C132.326 78.7228 133.003 79.6413 133.447 80.792C133.911 81.9226 134.143 83.1237 134.143 84.3956C134.143 86.0914 133.749 87.6256 132.962 88.9984C132.195 90.3712 131.105 91.2494 129.692 91.6329L134.749 98.1738H128.723L123.817 91.8146H111.553V98.1738H106.799V76.9765H111.553ZM127.027 87.3632C127.794 87.3632 128.379 87.0705 128.783 86.485C129.207 85.8996 129.419 85.2031 129.419 84.3956C129.419 83.5881 129.207 82.8916 128.783 82.3061C128.379 81.7207 127.794 81.428 127.027 81.428H111.553V87.3632H127.027ZM147.767 80.8223H136.562V76.9765H163.695V80.8223H152.521V98.1738H147.767V80.8223ZM166.711 76.9765H171.465V85.4252H188.786V76.9765H193.54V98.1738H188.786V89.8766H171.465V98.1738H166.711V76.9765Z" fill="white"/>
<path d="M7.38883 50.2572L19.653 66.1249L31.8869 50.2572H38.0947L37.701 71.4545H33.3404V56.1621L21.9544 70.8791H17.6241L6.32897 56.1621V71.4545H1.87753V50.2572H7.38883ZM41.134 60.7952C41.134 57.8074 41.5579 55.5565 42.4058 54.0424C43.2537 52.5081 44.7375 51.4382 46.8572 50.8325C48.977 50.2269 52.1162 49.9241 56.2749 49.9241C60.4336 49.9241 63.5728 50.2269 65.6925 50.8325C67.8123 51.4382 69.2961 52.5081 70.144 54.0424C70.9919 55.5767 71.4158 57.8276 71.4158 60.7952C71.4158 63.7831 70.9919 66.0441 70.144 67.5784C69.2961 69.0925 67.8123 70.1624 65.6925 70.7883C63.5728 71.3939 60.4336 71.6967 56.2749 71.6967C52.1162 71.6967 48.977 71.3939 46.8572 70.7883C44.7375 70.1624 43.2537 69.0925 42.4058 67.5784C41.5579 66.0441 41.134 63.7831 41.134 60.7952ZM45.8882 60.7347C45.8882 62.4507 46.2011 63.773 46.8269 64.7016C47.4528 65.6101 48.5025 66.2662 49.9763 66.6699C51.45 67.0535 53.5495 67.2453 56.2749 67.2453C59.0003 67.2453 61.0998 67.0535 62.5735 66.6699C64.0472 66.2662 65.097 65.6101 65.7228 64.7016C66.3487 63.773 66.6616 62.4507 66.6616 60.7347C66.6616 59.0591 66.3487 57.7772 65.7228 56.8889C65.097 55.9804 64.0472 55.3344 62.5735 54.9508C61.0998 54.5673 59.0003 54.3755 56.2749 54.3755C53.5495 54.3755 51.45 54.5673 49.9763 54.9508C48.5025 55.3344 47.4528 55.9804 46.8269 56.8889C46.2011 57.7772 45.8882 59.0591 45.8882 60.7347ZM74.4464 60.7952C74.4464 57.8074 74.8703 55.5565 75.7182 54.0424C76.5661 52.5081 78.0499 51.4382 80.1696 50.8325C82.2894 50.2269 85.4286 49.9241 89.5873 49.9241C93.746 49.9241 96.8852 50.2269 99.005 50.8325C101.125 51.4382 102.609 52.5081 103.456 54.0424C104.304 55.5767 104.728 57.8276 104.728 60.7952C104.728 63.7831 104.304 66.0441 103.456 67.5784C102.609 69.0925 101.125 70.1624 99.005 70.7883C96.8852 71.3939 93.746 71.6967 89.5873 71.6967C85.4286 71.6967 82.2894 71.3939 80.1696 70.7883C78.0499 70.1624 76.5661 69.0925 75.7182 67.5784C74.8703 66.0441 74.4464 63.7831 74.4464 60.7952ZM79.2006 60.7347C79.2006 62.4507 79.5135 63.773 80.1394 64.7016C80.7652 65.6101 81.815 66.2662 83.2887 66.6699C84.7624 67.0535 86.8619 67.2453 89.5873 67.2453C92.3127 67.2453 94.4122 67.0535 95.8859 66.6699C97.3597 66.2662 98.4094 65.6101 99.0353 64.7016C99.6611 63.773 99.974 62.4507 99.974 60.7347C99.974 59.0591 99.6611 57.7772 99.0353 56.8889C98.4094 55.9804 97.3597 55.3344 95.8859 54.9508C94.4122 54.5673 92.3127 54.3755 89.5873 54.3755C86.8619 54.3755 84.7624 54.5673 83.2887 54.9508C81.815 55.3344 80.7652 55.9804 80.1394 56.8889C79.5135 57.7772 79.2006 59.0591 79.2006 60.7347ZM107.759 50.2572H114.148L130.773 66.8516V50.2572H135.527V71.4545H128.986L112.513 54.8297V71.4545H107.759V50.2572Z" fill="white"/>
<path fill-rule="evenodd" clip-rule="evenodd" d="M45.9271 102.869H43.4188C33.2406 115.613 18.1677 124.276 1.04761 126.011V128C19.3423 126.204 35.3872 116.742 45.9271 102.869ZM1.04761 3.05176e-05C27.6068 2.60735 49.4245 21.3714 56.5408 46.3322H54.4799C47.4406 22.4721 26.508 4.56905 1.04761 1.98878V3.05176e-05ZM1.04761 92.2749C9.97634 90.2752 17.3484 84.1545 21.0625 76.014H18.87C15.3637 83.0581 8.87014 88.3538 1.04761 90.2428V92.2749ZM1.04761 35.7251C11.0295 37.9606 19.0659 45.3467 22.2206 54.9474L20.7087 56.7834C18.1095 47.3911 10.5614 40.0546 1.04761 37.7571V35.7251Z" fill="white"/>
</svg>
