<svg width="135" height="42" viewBox="0 0 135 42" fill="none" xmlns="http://www.w3.org/2000/svg">
<path d="M30.4732 38.904H49.0055V35.7546H33.8369V33.0337H47.9556V29.8843H33.8369V27.0562H49.0055V23.9068H30.4732V38.904ZM68.7656 38.904H72.1507V31.3626C72.1507 25.2137 70.0082 23.6711 61.4384 23.6711C52.8686 23.6711 50.7261 25.2137 50.7261 31.3626V38.904H54.1112C54.1112 38.8183 54.0898 37.2972 54.0898 35.6046H68.787C68.787 37.2972 68.7656 38.8183 68.7656 38.904ZM54.0898 32.4552V31.1055C54.0898 27.6347 55.7609 26.6063 61.4384 26.6063C67.1159 26.6063 68.787 27.6347 68.787 31.1055V32.4552H54.0898ZM73.8663 23.9068V38.904H77.23V34.4048H85.9069L89.3777 38.904H93.6412L90.0633 34.2763C94.6053 33.0337 94.2411 23.9068 88.9921 23.9068H77.23H73.8663ZM77.23 31.2554V27.0562H88.1779C90.4275 27.0562 90.4275 31.2554 88.1779 31.2554H77.23ZM102.423 38.904H105.787V26.6277H113.692V23.9068H94.4958V26.6277H102.423V38.904ZM115.397 38.904H118.761V33.0337H131.016V38.904H134.38V23.9068H131.016V29.8843H118.761V23.9068H115.397V38.904Z" fill="white"/>
<path d="M0.49126 5.00277V20H3.64067V9.18056L11.632 19.5929H14.6958L22.7514 9.18056V20H25.8365L26.1151 5.00277H21.723L13.0675 16.2292L4.39053 5.00277H0.49126ZM27.8369 12.4585C27.8369 18.6288 29.9793 20.1714 38.5492 20.1714C47.119 20.1714 49.2615 18.6288 49.2615 12.4585C49.2615 6.30967 47.119 4.7671 38.5492 4.7671C29.9793 4.7671 27.8369 6.30967 27.8369 12.4585ZM31.2005 12.4157C31.2005 8.94489 32.8717 7.91651 38.5492 7.91651C44.2267 7.91651 45.8978 8.94489 45.8978 12.4157C45.8978 15.9721 44.2267 17.022 38.5492 17.022C32.8717 17.022 31.2005 15.9721 31.2005 12.4157ZM50.9771 12.4585C50.9771 18.6288 53.1196 20.1714 61.6894 20.1714C70.2592 20.1714 72.4017 18.6288 72.4017 12.4585C72.4017 6.30967 70.2592 4.7671 61.6894 4.7671C53.1196 4.7671 50.9771 6.30967 50.9771 12.4585ZM54.3408 12.4157C54.3408 8.94489 56.0119 7.91651 61.6894 7.91651C67.3669 7.91651 69.038 8.94489 69.038 12.4157C69.038 15.9721 67.3669 17.022 61.6894 17.022C56.0119 17.022 54.3408 15.9721 54.3408 12.4157ZM74.1173 20H77.481V8.23788L89.1359 20H93.7636V5.00277H90.4V16.7434L78.6379 5.00277H74.1173V20Z" fill="white"/>
</svg>
