<svg width="426" height="281" viewBox="0 0 426 281" fill="none" xmlns="http://www.w3.org/2000/svg">
<path d="M95.4184 268.578V278.378H97.6164V275.438H103.286L105.554 278.378H108.34L106.002 275.354C108.97 274.542 108.732 268.578 105.302 268.578H97.6164H95.4184ZM97.6164 273.38V270.636H104.77C106.24 270.636 106.24 273.38 104.77 273.38H97.6164ZM131.719 278.378H143.829V276.32H133.917V274.542H143.143V272.484H133.917V270.636H143.829V268.578H131.719V278.378ZM174.34 278.378H176.37L183.482 268.578H180.892L175.446 276.152L169.972 268.578H167.214L174.34 278.378ZM205.47 273.45C205.47 277.482 206.87 278.49 212.47 278.49C218.07 278.49 219.47 277.482 219.47 273.45C219.47 269.432 218.07 268.424 212.47 268.424C206.87 268.424 205.47 269.432 205.47 273.45ZM207.668 273.422C207.668 271.154 208.76 270.482 212.47 270.482C216.18 270.482 217.272 271.154 217.272 273.422C217.272 275.746 216.18 276.432 212.47 276.432C208.76 276.432 207.668 275.746 207.668 273.422ZM242.851 268.578V278.378H253.155V276.32H245.049V268.578H242.851ZM289.981 268.578H287.769C287.783 268.69 287.783 273.324 287.783 273.45C287.783 275.718 286.747 276.39 283.261 276.39C279.775 276.39 278.739 275.718 278.739 273.45C278.739 273.324 278.739 268.69 278.753 268.578H276.541V273.422C276.541 277.3 278.081 278.448 283.261 278.448C288.441 278.448 289.981 277.3 289.981 273.422V268.578ZM318.541 278.378H320.739V270.356H325.905V268.578H313.361V270.356H318.541V278.378ZM351.477 278.378V268.578H349.279V278.378H351.477ZM374.862 273.45C374.862 277.482 376.262 278.49 381.862 278.49C387.462 278.49 388.862 277.482 388.862 273.45C388.862 269.432 387.462 268.424 381.862 268.424C376.262 268.424 374.862 269.432 374.862 273.45ZM377.06 273.422C377.06 271.154 378.152 270.482 381.862 270.482C385.572 270.482 386.664 271.154 386.664 273.422C386.664 275.746 385.572 276.432 381.862 276.432C378.152 276.432 377.06 275.746 377.06 273.422ZM412.243 278.378H414.441V270.692L422.057 278.378H425.081V268.578H422.883V276.25L415.197 268.578H412.243V278.378Z" fill="white"/>
<path d="M95.5186 215.777H152.919V206.022H105.937V197.595H149.668V187.84H105.937V179.081H152.919V169.326H95.5186V215.777ZM215.45 215.777H225.935V192.419C225.935 173.374 219.299 168.596 192.755 168.596C166.212 168.596 159.576 173.374 159.576 192.419V215.777H170.061C170.061 215.512 169.994 210.8 169.994 205.558H215.516C215.516 210.8 215.45 215.512 215.45 215.777ZM169.994 195.803V191.623C169.994 180.872 175.17 177.687 192.755 177.687C210.34 177.687 215.516 180.872 215.516 191.623V195.803H169.994ZM232.576 169.326V215.777H242.994V201.842H269.87L280.62 215.777H293.825L282.743 201.444C296.811 197.595 295.683 169.326 279.425 169.326H242.994H232.576ZM242.994 192.087V179.081H276.904C283.871 179.081 283.871 192.087 276.904 192.087H242.994ZM322.352 215.777H332.771V177.754H357.257V169.326H297.8V177.754H322.352V215.777ZM363.866 215.777H374.284V197.595H412.241V215.777H422.66V169.326H412.241V187.84H374.284V169.326H363.866V215.777Z" fill="white"/>
<path d="M2.65436 110.774V157.225H12.4091V123.714L37.161 155.964H46.6504L71.6014 123.714V157.225H81.1571L82.0197 110.774H68.4161L41.6071 145.546L14.7317 110.774H2.65436ZM88.68 133.867C88.68 152.978 95.3159 157.756 121.86 157.756C148.403 157.756 155.039 152.978 155.039 133.867C155.039 114.822 148.403 110.044 121.86 110.044C95.3159 110.044 88.68 114.822 88.68 133.867ZM99.0984 133.734C99.0984 122.984 104.274 119.799 121.86 119.799C139.445 119.799 144.621 122.984 144.621 133.734C144.621 144.75 139.445 148.001 121.86 148.001C104.274 148.001 99.0984 144.75 99.0984 133.734ZM161.68 133.867C161.68 152.978 168.316 157.756 194.86 157.756C221.403 157.756 228.039 152.978 228.039 133.867C228.039 114.822 221.403 110.044 194.86 110.044C168.316 110.044 161.68 114.822 161.68 133.867ZM172.098 133.734C172.098 122.984 177.274 119.799 194.86 119.799C212.445 119.799 217.621 122.984 217.621 133.734C217.621 144.75 212.445 148.001 194.86 148.001C177.274 148.001 172.098 144.75 172.098 133.734ZM234.68 157.225H245.099V120.794L281.198 157.225H295.531V110.774H285.113V147.139L248.682 110.774H234.68V157.225Z" fill="white"/>
<path fill-rule="evenodd" clip-rule="evenodd" d="M99.1836 225.425H93.6869C71.3826 253.352 38.3519 272.336 0.834961 276.138V280.496C40.9258 276.561 76.0865 255.826 99.1836 225.425ZM0.834961 3.8147e-06C59.0364 5.7134 106.847 46.8326 122.442 101.531H117.926C102.5 49.2446 56.6286 10.0122 0.834961 4.35811V3.8147e-06ZM0.834961 202.209C20.4014 197.827 36.5565 184.415 44.6955 166.575H39.8911C32.2073 182.012 17.9773 193.617 0.834961 197.756V202.209ZM0.834961 78.2871C22.7095 83.1859 40.3205 99.372 47.2337 120.411L43.9204 124.434C38.2247 103.852 21.6837 87.7746 0.834961 82.7401V78.2871Z" fill="white"/>
</svg>
