<svg width="24" height="24" viewBox="0 0 24 24" fill="none" xmlns="http://www.w3.org/2000/svg">
<path d="M21.593 10.1586C21.7797 11.1114 21.1155 12.3011 19.5055 13.4583C17.9345 14.5875 15.614 15.5635 12.9159 16.092C10.2177 16.6206 7.70049 16.5921 5.81957 16.1392C3.89194 15.6749 2.82799 14.8238 2.64134 13.8709C2.45469 12.9181 3.11887 11.7284 4.72888 10.5712C6.29988 9.44202 8.62037 8.46595 11.3185 7.93742C14.0166 7.4089 16.5339 7.43733 18.4148 7.8903C20.3424 8.35452 21.4064 9.20571 21.593 10.1586Z" stroke="white"/>
<path d="M18.353 19.385C17.6119 20.0122 16.2493 20.0119 14.4543 19.1697C12.7028 18.3479 10.7198 16.7971 8.94369 14.6984C7.16754 12.5997 5.96589 10.3876 5.44502 8.52436C4.91122 6.61483 5.13615 5.27098 5.8773 4.64373C6.61845 4.01648 7.98099 4.01683 9.77599 4.859C11.5275 5.68076 13.5105 7.23161 15.2866 9.33029C17.0628 11.429 18.2644 13.6411 18.7853 15.5043C19.3191 17.4139 19.0942 18.7577 18.353 19.385Z" stroke="white"/>
</svg>
