<svg width="274" height="94" viewBox="0 0 274 94" fill="none" xmlns="http://www.w3.org/2000/svg">
<rect width="274" height="94" rx="7.99668" fill="white" fill-opacity="0.1"/>
<g clip-path="url(#clip0_1277_1620)">
<path d="M96.1103 47.0983C96.1103 44.8071 96.5839 42.7693 97.5312 40.9848C98.5005 39.1783 99.8664 37.7794 101.629 36.788C103.391 35.7746 105.418 35.2679 107.709 35.2679C110.617 35.2679 113.062 36.05 115.045 37.6141C117.028 39.1563 118.306 41.2602 118.878 43.9259H111.906C111.487 43.0447 110.904 42.3727 110.155 41.9101C109.428 41.4474 108.579 41.2161 107.61 41.2161C106.112 41.2161 104.911 41.7559 104.008 42.8354C103.127 43.8928 102.686 45.3138 102.686 47.0983C102.686 48.9048 103.127 50.3478 104.008 51.4273C104.911 52.4847 106.112 53.0135 107.61 53.0135C108.579 53.0135 109.428 52.7821 110.155 52.3195C110.904 51.8569 111.487 51.1849 111.906 50.3037H118.878C118.306 52.9694 117.028 55.0843 115.045 56.6485C113.062 58.1906 110.617 58.9617 107.709 58.9617C105.418 58.9617 103.391 58.466 101.629 57.4746C99.8664 56.4612 98.5005 55.0623 97.5312 53.2778C96.5839 51.4713 96.1103 49.4115 96.1103 47.0983Z" fill="#F9FAFC"/>
<path d="M134.139 40.0926C136.254 40.0926 137.928 40.8086 139.162 42.2405C140.418 43.6505 141.046 45.5671 141.046 47.9905V58.7965H134.569V48.8497C134.569 47.7922 134.293 46.9661 133.743 46.3713C133.192 45.7544 132.454 45.446 131.529 45.446C130.559 45.446 129.799 45.7544 129.248 46.3713C128.698 46.9661 128.422 47.7922 128.422 48.8497V58.7965H121.945V34.3426H128.422V42.9015C128.995 42.0643 129.766 41.3924 130.736 40.8857C131.727 40.3569 132.861 40.0926 134.139 40.0926Z" fill="#F9FAFC"/>
<path d="M162.312 49.3123C162.312 49.819 162.279 50.3257 162.213 50.8324H149.953C150.019 51.8458 150.294 52.6059 150.779 53.1126C151.286 53.5973 151.925 53.8396 152.696 53.8396C153.775 53.8396 154.546 53.3549 155.009 52.3856H161.915C161.629 53.6634 161.067 54.8089 160.23 55.8224C159.415 56.8137 158.379 57.5958 157.124 58.1686C155.868 58.7414 154.48 59.0278 152.96 59.0278C151.132 59.0278 149.501 58.6423 148.069 57.8712C146.659 57.1001 145.547 55.9986 144.732 54.5666C143.939 53.1346 143.542 51.4493 143.542 49.5106C143.542 47.5719 143.939 45.8976 144.732 44.4876C145.525 43.0557 146.626 41.9541 148.036 41.1831C149.468 40.412 151.11 40.0265 152.96 40.0265C154.789 40.0265 156.408 40.401 157.818 41.15C159.228 41.8991 160.329 42.9786 161.122 44.3885C161.915 45.7764 162.312 47.4177 162.312 49.3123ZM155.703 47.6931C155.703 46.9 155.438 46.2831 154.91 45.8425C154.381 45.3799 153.72 45.1486 152.927 45.1486C152.134 45.1486 151.484 45.3689 150.977 45.8095C150.471 46.2281 150.14 46.8559 149.986 47.6931H155.703Z" fill="#F9FAFC"/>
<path d="M182.675 49.3123C182.675 49.819 182.642 50.3257 182.576 50.8324H170.316C170.382 51.8458 170.657 52.6059 171.142 53.1126C171.649 53.5973 172.287 53.8396 173.059 53.8396C174.138 53.8396 174.909 53.3549 175.372 52.3856H182.278C181.992 53.6634 181.43 54.8089 180.593 55.8224C179.778 56.8137 178.742 57.5958 177.487 58.1686C176.231 58.7414 174.843 59.0278 173.323 59.0278C171.494 59.0278 169.864 58.6423 168.432 57.8712C167.022 57.1001 165.91 55.9986 165.095 54.5666C164.302 53.1346 163.905 51.4493 163.905 49.5106C163.905 47.5719 164.302 45.8976 165.095 44.4876C165.888 43.0557 166.989 41.9541 168.399 41.1831C169.831 40.412 171.472 40.0265 173.323 40.0265C175.151 40.0265 176.771 40.401 178.181 41.15C179.59 41.8991 180.692 42.9786 181.485 44.3885C182.278 45.7764 182.675 47.4177 182.675 49.3123ZM176.066 47.6931C176.066 46.9 175.801 46.2831 175.273 45.8425C174.744 45.3799 174.083 45.1486 173.29 45.1486C172.497 45.1486 171.847 45.3689 171.34 45.8095C170.833 46.2281 170.503 46.8559 170.349 47.6931H176.066Z" fill="#F9FAFC"/>
<path d="M193.223 59.0278C191.549 59.0278 190.051 58.7524 188.729 58.2016C187.429 57.6289 186.394 56.8578 185.623 55.8884C184.874 54.8971 184.455 53.7845 184.367 52.5508H190.646C190.734 53.1456 191.009 53.6083 191.472 53.9387C191.934 54.2692 192.507 54.4344 193.19 54.4344C193.719 54.4344 194.137 54.3243 194.446 54.104C194.754 53.8837 194.908 53.5973 194.908 53.2448C194.908 52.7821 194.655 52.4407 194.148 52.2204C193.642 52.0001 192.805 51.7577 191.637 51.4934C190.315 51.229 189.214 50.9316 188.332 50.6011C187.451 50.2707 186.68 49.7309 186.019 48.9819C185.38 48.2328 185.061 47.2194 185.061 45.9417C185.061 44.8401 185.358 43.8488 185.953 42.9675C186.548 42.0643 187.418 41.3483 188.564 40.8196C189.731 40.2908 191.13 40.0265 192.76 40.0265C195.184 40.0265 197.089 40.6213 198.477 41.8109C199.865 43.0006 200.669 44.5648 200.89 46.5034H195.041C194.93 45.9086 194.666 45.457 194.248 45.1486C193.851 44.8181 193.311 44.6529 192.628 44.6529C192.1 44.6529 191.692 44.752 191.406 44.9503C191.141 45.1486 191.009 45.4239 191.009 45.7764C191.009 46.217 191.262 46.5585 191.769 46.8009C192.276 47.0212 193.091 47.2525 194.215 47.4948C195.558 47.7812 196.671 48.1007 197.552 48.4531C198.455 48.8056 199.237 49.3784 199.898 50.1715C200.581 50.9426 200.923 52.0001 200.923 53.3439C200.923 54.4234 200.603 55.3928 199.964 56.2519C199.348 57.1111 198.455 57.7941 197.288 58.3008C196.142 58.7855 194.787 59.0278 193.223 59.0278Z" fill="#F9FAFC"/>
<path d="M223.075 40.2578V58.7965H216.565V56.1528C216.014 56.99 215.254 57.6729 214.285 58.2016C213.316 58.7084 212.203 58.9617 210.947 58.9617C208.788 58.9617 207.081 58.2567 205.825 56.8468C204.592 55.4148 203.975 53.4761 203.975 51.0307V40.2578H210.419V50.2046C210.419 51.262 210.694 52.0992 211.245 52.716C211.817 53.3109 212.567 53.6083 213.492 53.6083C214.439 53.6083 215.188 53.3109 215.739 52.716C216.29 52.0992 216.565 51.262 216.565 50.2046V40.2578H223.075Z" fill="#F9FAFC"/>
<path d="M234.659 59.0278C232.985 59.0278 231.486 58.7524 230.165 58.2016C228.865 57.6289 227.829 56.8578 227.058 55.8884C226.309 54.8971 225.891 53.7845 225.803 52.5508H232.081C232.169 53.1456 232.445 53.6083 232.907 53.9387C233.37 54.2692 233.943 54.4344 234.626 54.4344C235.155 54.4344 235.573 54.3243 235.882 54.104C236.19 53.8837 236.344 53.5973 236.344 53.2448C236.344 52.7821 236.091 52.4407 235.584 52.2204C235.077 52.0001 234.24 51.7577 233.073 51.4934C231.751 51.229 230.649 50.9316 229.768 50.6011C228.887 50.2707 228.116 49.7309 227.455 48.9819C226.816 48.2328 226.497 47.2194 226.497 45.9417C226.497 44.8401 226.794 43.8488 227.389 42.9675C227.984 42.0643 228.854 41.3483 229.999 40.8196C231.167 40.2908 232.566 40.0265 234.196 40.0265C236.62 40.0265 238.525 40.6213 239.913 41.8109C241.301 43.0006 242.105 44.5648 242.325 46.5034H236.476C236.366 45.9086 236.102 45.457 235.683 45.1486C235.287 44.8181 234.747 44.6529 234.064 44.6529C233.535 44.6529 233.128 44.752 232.841 44.9503C232.577 45.1486 232.445 45.4239 232.445 45.7764C232.445 46.217 232.698 46.5585 233.205 46.8009C233.712 47.0212 234.527 47.2525 235.65 47.4948C236.994 47.7812 238.107 48.1007 238.988 48.4531C239.891 48.8056 240.673 49.3784 241.334 50.1715C242.017 50.9426 242.358 52.0001 242.358 53.3439C242.358 54.4234 242.039 55.3928 241.4 56.2519C240.783 57.1111 239.891 57.7941 238.723 58.3008C237.578 58.7855 236.223 59.0278 234.659 59.0278Z" fill="#F9FAFC"/>
<path d="M82.6032 47.4125C82.5984 50.6256 81.9936 53.8082 80.8212 56.7895C80.7294 57.0227 80.2631 57.916 80.247 57.9401C79.8676 58.504 79.2302 59.2529 78.5109 59.2529C77.5957 59.2529 77.1468 58.6193 76.8988 57.4789C76.8604 57.304 76.7438 56.1509 76.7289 55.7542C76.6992 54.9357 76.6334 54.0829 76.5218 53.206C76.0941 49.7041 74.9034 46.3448 73.0372 43.3754C70.8733 39.9541 67.778 37.0535 63.8309 34.746C63.754 34.6256 63.692 34.5255 63.6163 34.4052C63.479 32.9231 62.8795 31.5252 61.9063 30.4174C60.2508 28.5167 57.6565 27.6297 55.1354 28.1175C53.6808 28.395 52.5375 29.0349 51.7364 30.0183C51.6247 30.1552 51.5461 30.317 51.5066 30.4906C51.4672 30.6642 51.4682 30.8449 51.5095 31.018C51.7522 32.1782 51.8703 33.362 51.8616 34.5484L51.7128 34.8753C50.2722 36.1691 49.0501 37.6966 48.0955 39.3965C46.3371 42.4732 44.4646 47.7205 45.536 55.2474C45.5573 55.3958 45.6071 55.5384 45.6824 55.6671C45.7577 55.7959 45.8571 55.9081 45.975 55.9975C45.9862 56.0064 46.0444 56.0495 46.1436 56.1179C46.2788 56.2104 46.4896 56.3485 46.7637 56.5095C47.4134 56.8841 48.0959 57.1959 48.8024 57.4408C49.0863 57.5397 49.3864 57.6309 49.7014 57.7107C52.6528 58.4584 55.3475 57.7209 57.7979 55.843C58.79 55.0827 60.0834 52.8018 59.658 52.2949C59.2736 51.8375 57.0824 53.8307 56.6087 54.188C52.8971 56.9885 49.5402 54.3921 48.2133 53.5114L48.0211 53.1959C47.3936 48.0474 47.8078 44.4765 49.9594 40.651L49.9966 40.5864C50.2657 40.1112 50.5422 39.6765 50.8163 39.2812L51.2118 38.7008C51.251 38.6433 51.3032 38.5963 51.364 38.5639C51.4248 38.5315 51.4923 38.5145 51.5609 38.5145C51.6295 38.5145 51.6971 38.5315 51.7578 38.5639C51.8186 38.5963 51.8708 38.6433 51.91 38.7008C51.9726 38.7917 51.9975 38.9042 51.9795 39.0138C51.8876 39.638 51.6837 40.2394 51.378 40.7878C51.0804 41.3264 52.4656 40.893 52.9616 40.006C53.4377 39.1366 53.7518 38.1845 53.8879 37.198C53.971 36.6569 54.0119 36.1108 54.0529 35.5507C54.0774 35.4346 54.0841 35.3153 54.0727 35.1971C54.1232 33.9255 54.048 32.6519 53.8482 31.3957C53.9227 31.2423 53.9933 31.0928 54.0677 30.9382C54.3158 30.8026 54.498 30.8533 55.0462 30.7481C56.8034 30.4123 58.6015 31.0155 59.7399 32.322C60.4764 33.15 60.8941 34.2229 60.9155 35.3416C60.9148 35.3458 60.9148 35.3501 60.9155 35.3543C60.8969 35.6837 60.8646 35.9878 60.8212 36.2692C60.5347 38.1243 59.756 38.9834 59.1372 39.3471C59.1082 39.3642 59.0851 39.39 59.071 39.4209C59.0568 39.4519 59.0522 39.4865 59.0579 39.5202C59.0636 39.5539 59.0792 39.585 59.1027 39.6093C59.1262 39.6336 59.1564 39.65 59.1893 39.6563C60.1342 39.8362 62.2895 39.9591 63.1786 37.6161L63.811 37.4109C65.3814 38.4676 66.754 39.8031 67.8636 41.3543C70.4901 44.9809 71.6533 49.4565 71.9819 53.0729C71.9764 56.2141 71.1873 59.302 69.6892 62.0449C68.1911 64.7879 66.0334 67.0952 63.4199 68.7491C60.8064 70.403 57.8235 71.3487 54.7529 71.497C51.6822 71.6453 48.6253 70.9913 45.8708 69.5967C41.9666 67.4123 38.7107 64.1929 36.4458 60.2774C34.1808 56.3619 32.9905 51.895 33.0001 47.3467C33.0001 33.4941 43.8755 22.2379 57.3775 22.0035C71.2106 21.7703 82.6379 33.2812 82.6032 47.4125Z" fill="#F9FAFC"/>
</g>
<defs>
<clipPath id="clip0_1277_1620">
<rect width="209" height="50" fill="white" transform="translate(33 22)"/>
</clipPath>
</defs>
</svg>
