<svg width="274" height="94" viewBox="0 0 274 94" fill="none" xmlns="http://www.w3.org/2000/svg">
<rect width="274" height="94" rx="7.99668" fill="white" fill-opacity="0.1"/>
<path d="M78.5715 47.1746C78.5715 41.1295 81.824 37.8899 88.1273 37.8899C89.6528 37.8899 91.4599 38.2473 92.7551 38.8429L94.0698 36.7699C91.9421 35.3023 89.8255 35.18 87.8107 35.18C79.5501 35.18 75.866 39.9681 75.866 47.1746C75.866 54.3811 79.5501 59.4138 87.8107 59.4138C89.8255 59.4138 91.4085 59.1755 92.9916 58.4608V55.8105C91.5812 56.4359 89.6528 56.7039 88.1273 56.7039C81.824 56.7039 78.5715 53.2793 78.5715 47.1746Z" fill="white"/>
<path d="M102.935 41.5762C101.28 41.5762 99.1312 43.1076 98.1238 45.1326V41.7421H95.7349V58.7586H98.3253V50.4162C98.3253 47.1107 100.453 44.4748 102.643 44.1733C103.362 44.1733 105.194 44.2036 105.654 44.3525V41.8208C105.654 41.8208 103.763 41.5762 102.935 41.5762Z" fill="white"/>
<path d="M106.002 50.4801C106.002 55.3638 107.873 59.4138 114.09 59.4138C120.278 59.4138 122.178 55.3638 122.178 50.4801C122.178 45.5665 120.278 41.5762 114.09 41.5762C107.873 41.5762 106.002 45.5665 106.002 50.4801ZM119.559 50.4801C119.559 54.2322 118.35 57.1506 114.09 57.1506C109.83 57.1506 108.621 54.262 108.621 50.4801C108.621 46.6981 109.83 43.8394 114.09 43.8394C118.35 43.8394 119.559 46.6981 119.559 50.4801Z" fill="white"/>
<path d="M129.214 55.5127L125.012 41.9867H122.364L127.689 58.7586H130.481L135.248 45.775L140.281 58.7586H143.073L148.398 41.9867H145.721L141.547 55.5127L136.428 41.9867H134.068L129.214 55.5127Z" fill="white"/>
<path d="M161.328 44.5838C160.235 42.7375 158.364 41.5762 155.399 41.5762C149.93 41.5762 148.204 45.5665 148.204 50.4801C148.204 55.3638 149.93 59.4138 155.399 59.4138C158.508 59.4138 160.407 58.1035 161.472 56.1083V58.7586H163.89V34.5526H161.328V44.5838ZM156.061 57.1506C152.003 57.1506 150.823 54.2322 150.823 50.4801C150.823 46.6981 152.032 43.8394 156.061 43.8394C160.119 43.8394 161.328 46.6981 161.328 50.4801C161.328 54.262 160.119 57.1506 156.061 57.1506Z" fill="white"/>
<path d="M166.509 50.4801C166.509 54.9469 168.523 59.4138 175.316 59.4138C177.072 59.4138 178.396 59.2053 179.921 58.6693V55.602C178.511 56.0487 177.475 56.3167 175.863 56.3167C172.207 56.3167 169.847 54.3216 169.847 50.4801C169.847 46.6088 172.236 44.7029 175.863 44.7029C177.446 44.7029 177.623 44.971 178.976 45.3879L180.158 42.3206C178.632 41.7846 177.072 41.5762 175.316 41.5762C168.523 41.5762 166.509 46.0132 166.509 50.4801Z" fill="white"/>
<path d="M190.344 41.3316C188.386 41.3316 185.685 43.5968 184.678 45.6516L184.61 41.7421H181.656V58.7586H184.994V50.9288C184.994 47.7425 187.811 44.5541 190.085 44.5541C190.833 44.5541 192.21 44.5838 192.728 44.7625V41.4805C192.441 41.3911 191.034 41.3316 190.344 41.3316Z" fill="white"/>
<path d="M208.906 50.5098C208.906 45.3879 207.409 41.5762 201.221 41.5762C195.177 41.5762 193.335 45.5963 193.335 50.4801C193.335 55.3638 195.177 59.4138 201.653 59.4138C204.618 59.4138 206.229 59.0266 208.244 58.3417V55.5723C207.381 55.9594 205.452 56.6741 202.545 56.6741C197.969 56.6741 196.904 54.5002 196.702 51.8797H208.906V50.5098ZM201.221 44.3158C204.675 44.3158 205.596 46.4599 205.769 49.14H196.702C196.904 46.4599 197.998 44.3158 201.221 44.3158Z" fill="white"/>
<path d="M217.304 41.5762C215.663 41.5762 213.159 41.8739 211.691 42.4695V45.2985C213.159 44.6136 214.742 44.3456 216.498 44.3456C218.455 44.3456 221.851 44.8518 221.851 48.5742V49.8845C220.93 48.872 219.347 48.2169 216.843 48.2169C211.202 48.2169 210.338 51.5521 210.338 53.8451C210.338 56.1083 211.202 59.4138 216.843 59.4138C219.75 59.4138 221.362 58.5204 222.226 57.2399L222.974 58.7586H225.219V48.2764C225.219 42.0228 219.261 41.5762 217.304 41.5762ZM217.678 56.8825C214.627 56.8825 213.792 55.4829 213.792 53.8153C213.792 52.1179 214.627 50.7481 217.678 50.7481C221.017 50.7481 221.851 52.0881 221.851 53.7855C221.851 55.4829 221.017 56.8825 217.678 56.8825Z" fill="white"/>
<path d="M235.317 56.3167C233.533 56.3167 232.18 55.8701 232.18 52.9815V44.9114H237.476V42.2313H232.18V37.9133H229.941L228.576 42.2313L225.79 43.6989V44.9114H228.812V53.3388C228.812 58.3119 231.547 59.0564 234.281 59.0564C236.094 59.0564 237.13 58.7586 237.907 58.4608V55.7509C237.389 55.9892 236.497 56.3167 235.317 56.3167Z" fill="white"/>
<path d="M254.118 50.5098C254.118 45.3879 252.622 41.5762 246.434 41.5762C240.389 41.5762 238.547 45.5963 238.547 50.4801C238.547 55.3638 240.389 59.4138 246.865 59.4138C249.83 59.4138 251.442 59.0266 253.456 58.3417V55.5723C252.593 55.9594 250.665 56.6741 247.758 56.6741C243.181 56.6741 242.116 54.5002 241.915 51.8797H254.118V50.5098ZM246.434 44.3158C249.887 44.3158 250.809 46.4599 250.981 49.14H241.915C242.116 46.4599 243.21 44.3158 246.434 44.3158Z" fill="white"/>
<path d="M19.9542 41.4013C16.703 54.5198 24.631 66.9937 35.1241 70.5087C43.6514 73.3652 53.7164 70.8418 60.4991 62.0699C63.8089 57.7894 64.7546 51.1853 64.7546 51.1853L54.707 51.3076C54.707 51.3076 53.5249 56.1996 49.3877 59.1348C45.2504 62.07 41.1132 61.4585 41.1132 61.4585C41.1132 61.4585 39.5648 62.8643 38.2762 63.774L35.3447 65.8612L35.1241 62.6652L34.9664 59.2571C30.8292 56.0772 29.2925 52.6529 29.0561 48.0055C28.8197 43.358 31.1838 37.3654 37.3306 34.6748C43.4773 31.9843 52.6467 35.3848 54.5888 44.092C54.555 43.9941 59.8687 44.092 59.8687 44.092C64.1635 44.092 64.5969 44.092 64.5969 44.092C64.5969 40.9122 62.0122 35.1071 59.648 32.1719C53.0874 24.0728 43.2245 21.9935 34.9664 24.8909C27.8781 27.3779 22.0059 33.0193 19.9542 41.4013Z" fill="white"/>
<path d="M35.2817 44.3366H49.1513V42.0537H35.2817V44.3366Z" fill="white"/>
<path d="M35.2817 48.5763H49.1513V46.6195H35.2817V48.5763Z" fill="white"/>
<path d="M35.2817 53.1421H49.1513V50.8592H35.2817V53.1421Z" fill="white"/>
</svg>
