<svg width="274" height="94" viewBox="0 0 274 94" fill="none" xmlns="http://www.w3.org/2000/svg">
<rect width="274" height="94" rx="7.99668" fill="white" fill-opacity="0.1"/>
<g clip-path="url(#clip0_1082_1212)">
<path d="M91.4887 11.267C85.0903 11.9598 78.8556 14.4158 73.7042 18.2574C72.9485 18.8242 72.3313 19.328 72.3313 19.3784C72.3313 19.4288 72.4824 19.5799 72.684 19.6933C72.8729 19.8192 73.1752 20.0585 73.3515 20.2223L73.6916 20.5245L74.737 19.6807C77.6843 17.3002 81.5636 15.2093 85.317 13.975C89.5364 12.5895 92.8616 12.1109 97.3329 12.2369C101.237 12.3502 103.895 12.8162 107.598 14.038C112.548 15.688 116.969 18.3708 120.735 22.0108C123.38 24.5676 125.244 26.9481 127.02 30.0214C127.864 31.4698 128.002 31.5202 127.221 30.0969C121.365 19.4162 111.074 12.514 99.134 11.2544C96.9172 11.0277 93.6425 11.0277 91.4887 11.267Z" fill="white"/>
<path d="M68.1119 19.391C67.6962 19.4539 66.9531 19.6932 66.4619 19.9451C61.7639 22.2501 62.1291 28.9759 67.0539 30.8149C70.2657 32.0114 73.9057 30.0843 74.7874 26.7466C75.3038 24.7439 74.7874 22.7665 73.3263 21.2047C71.9534 19.7436 70.1271 19.1013 68.1119 19.391Z" fill="white"/>
<path d="M63.6028 29.7443C63.2753 30.2481 62.1543 32.553 61.7009 33.6362C57.28 44.3674 58.6151 57.1138 65.215 66.9885C68.9936 72.6437 73.7798 76.8128 79.8255 79.7223C84.6621 82.0398 89.0578 83.0726 94.6249 83.1986C97.8997 83.2741 99.8016 83.123 102.623 82.5436C107.371 81.5864 112.422 79.3822 116.377 76.5357C117.989 75.3895 117.712 75.4777 115.81 76.7372C113.203 78.4627 110.722 79.6845 107.787 80.6795C95.2925 84.9619 81.4503 81.9012 72.0416 72.7949C69.9508 70.767 68.7039 69.2808 67.1672 66.9633C62.9352 60.6027 60.9704 53.436 61.386 45.8032C61.6379 41.3571 62.9226 36.1679 64.7364 32.3263L65.4417 30.8275L65.1394 30.6259C64.9757 30.5126 64.623 30.1977 64.3459 29.9332C64.0814 29.6687 63.8421 29.4546 63.8295 29.4546C63.8169 29.4546 63.7161 29.5805 63.6028 29.7443Z" fill="white"/>
<path d="M76.1099 42.4403C73.0618 42.8434 70.8702 45.7781 71.1221 49.1032C71.3363 52.1387 73.2633 54.2421 76.198 54.6577C78.843 55.0356 81.211 53.9776 82.4453 51.8616C82.8861 51.1184 83.2892 49.5188 83.2892 48.549C83.2766 44.5437 80.1655 41.8987 76.1099 42.4403ZM78.9942 44.8334C80.43 45.5513 81.0976 46.8738 80.9968 48.8387C80.8835 51.2822 79.5232 52.6299 77.1805 52.6299C75.5179 52.6299 74.4095 51.9749 73.7672 50.6398C73.4901 50.0604 73.4019 49.6952 73.3641 48.7883C73.3011 47.4028 73.6034 46.4582 74.3843 45.6143C75.2156 44.7075 75.8202 44.4681 77.256 44.4556C78.0873 44.443 78.314 44.4933 78.9942 44.8334Z" fill="white"/>
<path d="M152.601 42.667C150.724 43.3094 149.792 45.1483 150.535 46.7731C151.001 47.8059 151.896 48.3097 154.251 48.9143C156.153 49.3929 156.795 49.67 157.286 50.262C157.601 50.6272 157.626 50.7406 157.576 51.4837C157.488 52.9699 156.657 53.6501 154.818 53.7382C153.231 53.8138 152.198 53.4863 150.888 52.4661L150.397 52.0883L149.767 52.718L150.271 53.1085C152.475 54.8592 155.775 55.1237 157.45 53.6879C158.143 53.0959 158.508 52.3024 158.508 51.3955C158.508 49.5818 157.589 48.8135 154.478 48.02C151.996 47.4028 151.178 46.7857 151.178 45.5387C151.178 43.259 154.641 42.4151 157.034 44.1281L157.639 44.5563L157.878 44.254C158.004 44.0903 158.105 43.9265 158.105 43.8762C158.105 43.6117 156.694 42.8433 155.775 42.604C154.881 42.3647 153.394 42.3899 152.601 42.667Z" fill="white"/>
<path d="M176.393 43.2086C175.02 46.1937 171.406 53.9901 171.317 54.1665C171.204 54.368 171.254 54.3932 171.683 54.3932H172.161L172.892 52.7558L173.635 51.1184H180.625L182.086 54.3932H182.578C182.918 54.3932 183.056 54.3428 183.006 54.2295C182.804 53.7004 177.691 42.7174 177.59 42.5788C177.527 42.5033 177.313 42.4277 177.111 42.4277C176.784 42.4277 176.708 42.5159 176.393 43.2086ZM178.623 46.7353C179.416 48.4734 180.084 50.01 180.122 50.136C180.172 50.3501 180.008 50.3627 177.136 50.3627C175.474 50.3627 174.101 50.3249 174.101 50.2619C174.101 50.1234 177.048 43.5739 177.124 43.5613C177.162 43.5613 177.829 44.9845 178.623 46.7353Z" fill="white"/>
<path d="M84.9266 54.3932H93.2394V52.3779H87.1937V42.5536H84.9266V54.3932Z" fill="white"/>
<path d="M94.8768 54.3932H97.144V42.5536H94.8768V54.3932Z" fill="white"/>
<path d="M98.4413 42.7048C98.4791 42.793 99.5622 45.4128 100.86 48.5364C102.157 51.6474 103.24 54.2798 103.278 54.3554C103.328 54.4688 103.693 54.5192 104.5 54.5192H105.671L108.102 48.6246C109.437 45.3876 110.558 42.6922 110.583 42.6418C110.621 42.5914 110.067 42.5663 109.349 42.5788L108.064 42.6166L106.288 47.1761C105.318 49.6826 104.5 51.7104 104.474 51.6978C104.449 51.6726 103.656 49.6196 102.686 47.1383L100.935 42.6166L99.6504 42.5788C98.6428 42.5537 98.3909 42.5788 98.4413 42.7048Z" fill="white"/>
<path d="M111.88 54.3932H120.823V52.252H114.148V49.607H120.571V47.4658H114.148V44.6948H120.823V42.5536H111.88V54.3932Z" fill="white"/>
<path d="M122.561 48.4734L122.523 54.3932H124.728V50.4887H125.836L126.932 50.5013L128.62 52.4409L130.307 54.3932H131.68C132.423 54.3932 133.04 54.368 133.04 54.3302C133.04 54.305 132.247 53.3856 131.277 52.3024L129.514 50.3249L130.232 50.0352C131.113 49.6826 131.919 48.8513 132.209 48.0074C132.663 46.6849 132.348 44.846 131.516 43.9643C130.358 42.73 129.602 42.5536 125.647 42.5536H122.586L122.561 48.4734ZM129.212 44.8964C130.093 45.312 130.471 46.6849 129.942 47.5792C129.501 48.3223 128.934 48.4734 126.705 48.4734H124.728V44.6948H126.755C128.355 44.6948 128.871 44.7326 129.212 44.8964Z" fill="white"/>
<path d="M133.96 42.7048C134.048 42.9567 138.784 53.776 138.973 54.1665C139.086 54.4436 139.212 54.5192 139.527 54.5192H139.917L142.499 48.6498C143.91 45.4128 145.094 42.7174 145.119 42.6544C145.145 42.5914 144.943 42.5537 144.678 42.5788L144.187 42.6166L142.084 47.5288C140.925 50.2242 139.88 52.6677 139.766 52.9447L139.565 53.4486L139.401 53.1337C139.313 52.9573 138.267 50.5139 137.071 47.6799L134.892 42.5537H134.388C134.048 42.5537 133.91 42.604 133.96 42.7048Z" fill="white"/>
<path d="M146.895 54.3932H147.777V42.5536H146.895V54.3932Z" fill="white"/>
<path d="M160.372 46.2945C160.372 49.0654 160.423 50.2746 160.561 50.9043C161.04 53.1715 162.526 54.4436 164.906 54.6073C167.312 54.7837 169.138 53.6123 169.856 51.4459C170.096 50.7532 170.121 50.2872 170.171 46.6093L170.222 42.5411L169.768 42.5789L169.327 42.6166L169.277 46.6471C169.227 51.2192 169.164 51.5593 168.269 52.5795C167.665 53.2596 167.098 53.5745 166.09 53.7509C164.075 54.1161 162.324 53.1967 161.607 51.3829C161.342 50.7154 161.329 50.4509 161.279 46.6093L161.229 42.5537H160.372V46.2945Z" fill="white"/>
<path d="M184.807 42.5788C184.807 42.604 184.794 45.2616 184.769 48.5112L184.744 54.3932H192.616V53.6375H185.689L185.663 48.1207L185.626 42.6166L185.223 42.5788C184.996 42.5536 184.807 42.5536 184.807 42.5788Z" fill="white"/>
<path d="M194.379 54.3932H195.261V49.1032L198.637 49.078L202 49.0402V48.2845L198.637 48.2467L195.261 48.2215V43.4353L199.014 43.4101L202.755 43.3723V42.6166L198.574 42.5788L194.379 42.5536V54.3932Z" fill="white"/>
<path d="M204.279 43.0197C204.468 43.2842 205.501 44.5941 206.559 45.9418C207.781 47.491 208.448 48.4356 208.373 48.5238C208.322 48.5994 207.264 49.9471 206.043 51.5089C204.821 53.0833 203.826 54.3806 203.826 54.4058C203.826 54.431 204.065 54.431 204.367 54.4058C204.896 54.368 204.896 54.368 206.912 51.7356C208.007 50.2871 208.952 49.1032 209.002 49.1032C209.053 49.1032 210.01 50.2871 211.131 51.7482L213.172 54.3932H214.33L214.003 54.0405C213.675 53.6879 209.859 48.7883 209.695 48.5112C209.645 48.4105 210.426 47.3021 211.811 45.5261C213.033 43.9769 214.028 42.667 214.028 42.6292C214.028 42.5914 213.814 42.5537 213.562 42.5537C213.096 42.5537 213.058 42.5914 211.093 45.1357C209.998 46.5589 209.065 47.7177 209.015 47.7051C208.965 47.7051 208.045 46.5589 206.975 45.1609L205.022 42.6166L203.914 42.5411L204.279 43.0197Z" fill="white"/>
</g>
<defs>
<clipPath id="clip0_1082_1212">
<rect width="155.205" height="72.1307" fill="white" transform="translate(59.1256 11.0859)"/>
</clipPath>
</defs>
</svg>
