<svg width="274" height="94" viewBox="0 0 274 94" fill="none" xmlns="http://www.w3.org/2000/svg">
<rect width="274" height="94" rx="7.99668" fill="white" fill-opacity="0.1"/>
<path fill-rule="evenodd" clip-rule="evenodd" d="M42.0488 24.6447V70.0708H216.822L231.014 47.3578L216.72 24.6447H42.0488ZM41.0693 22.0303C40.1676 22.0303 39.4366 22.7619 39.4366 23.6643V71.0513C39.4366 71.9537 40.1676 72.6853 41.0693 72.6853H217.348C217.897 72.6853 218.408 72.4101 218.71 71.9526L233.528 48.2935C233.869 47.7764 233.889 47.1104 233.579 46.5739L218.698 22.846C218.406 22.3411 217.867 22.0303 217.285 22.0303H41.0693Z" fill="white"/>
<path d="M55.8159 51.2078V61.2473H51.976V33.7955H70.1568C71.5935 33.7955 72.8996 33.9916 74.0751 34.3838C75.2506 34.7498 76.2432 35.3119 77.053 36.0701C77.8889 36.8022 78.5289 37.7303 78.973 38.8545C79.4431 39.9787 79.6782 41.286 79.6782 42.7762C79.626 44.2141 79.3648 45.4691 78.8946 46.541C78.4244 47.6129 77.7713 48.4888 76.9354 49.1685C76.1257 49.8483 75.1461 50.3581 73.9967 50.698C72.8474 51.0379 71.5674 51.2078 70.1568 51.2078H55.8159ZM55.8159 47.7567H70.0001C71.698 47.7567 73.0563 47.3123 74.0751 46.4234C75.0938 45.5344 75.6032 44.2403 75.6032 42.5409C75.6032 40.8676 75.0938 39.5735 74.0751 38.6584C73.0563 37.7172 71.698 37.2466 70.0001 37.2466H55.8159V47.7567Z" fill="white"/>
<path d="M106.375 57.7962V61.2473H83.1007V33.7955H86.9406V57.7962H106.375Z" fill="white"/>
<path d="M117.17 52.9333L113.095 61.2473H108.824L122.342 33.7955H128.847L142.365 61.2473H138.055L133.98 52.9333H117.17ZM118.894 49.4823H132.256L125.595 35.9132L118.894 49.4823Z" fill="white"/>
<path d="M148.952 36.3446V61.2473H145.112V33.7955H151.812L169.601 58.6982V33.7955H173.402V61.2473H166.662L148.952 36.3446Z" fill="white"/>
<path d="M213.552 45.6782C213.552 48.1097 213.409 50.332 213.121 52.3451C212.834 54.3582 212.22 56.0968 211.28 57.5609C210.365 58.9989 209.02 60.1231 207.244 60.9336C205.494 61.744 203.143 62.1493 200.191 62.1493C198.31 62.1493 196.664 61.9009 195.254 61.4042C193.843 60.9336 192.655 60.3322 191.688 59.6002C190.748 58.842 190.042 58.0054 189.572 57.0903C189.102 56.1753 188.867 55.2994 188.867 54.4628H192.981C193.216 55.2471 193.647 55.953 194.274 56.5805C194.797 57.1034 195.541 57.5871 196.508 58.0315C197.5 58.476 198.819 58.6982 200.465 58.6982C202.294 58.6982 203.783 58.4629 204.932 57.9923C206.107 57.4956 207.022 56.8419 207.675 56.0315C208.354 55.1948 208.824 54.2536 209.085 53.2079C209.373 52.1359 209.529 51.0248 209.556 49.8744C209.373 50.0051 209.033 50.2012 208.537 50.4627C208.04 50.698 207.387 50.9464 206.578 51.2078C205.768 51.4692 204.788 51.6915 203.639 51.8745C202.516 52.0575 201.236 52.149 199.799 52.149C198.049 52.149 196.429 51.9921 194.94 51.6784C193.477 51.3385 192.224 50.8026 191.179 50.0705C190.134 49.3385 189.311 48.4103 188.71 47.2861C188.136 46.1358 187.848 44.7501 187.848 43.1291C187.848 41.2467 188.175 39.665 188.828 38.3839C189.481 37.0767 190.369 36.0178 191.492 35.2073C192.642 34.3969 193.987 33.8086 195.528 33.4426C197.069 33.0766 198.715 32.8936 200.465 32.8936C202.241 32.8936 203.926 33.0504 205.52 33.3642C207.113 33.6517 208.511 34.2531 209.712 35.1681C210.94 36.0832 211.893 37.3773 212.573 39.0506C213.278 40.7238 213.604 42.9331 213.552 45.6782ZM191.884 43.1684C191.884 45.1292 192.642 46.5541 194.157 47.443C195.698 48.3058 197.957 48.7371 200.935 48.7371C202.241 48.7371 203.43 48.6195 204.501 48.3842C205.572 48.1227 206.486 47.7567 207.244 47.2861C208.001 46.8155 208.589 46.2273 209.007 45.5214C209.425 44.8155 209.634 43.9919 209.634 43.0507C209.634 41.7696 209.438 40.7108 209.046 39.8741C208.654 39.0114 208.08 38.3185 207.322 37.7957C206.591 37.2728 205.676 36.9067 204.579 36.6976C203.508 36.4623 202.294 36.3446 200.935 36.3446C199.655 36.3446 198.454 36.4361 197.33 36.6192C196.233 36.8022 195.28 37.142 194.47 37.6388C193.66 38.1355 193.02 38.8284 192.55 39.7173C192.106 40.6062 191.884 41.7566 191.884 43.1684Z" fill="white"/>
</svg>
