<svg width="274" height="94" viewBox="0 0 274 94" fill="none" xmlns="http://www.w3.org/2000/svg">
<rect width="274" height="94" rx="7.99668" fill="white" fill-opacity="0.1"/>
<path fill-rule="evenodd" clip-rule="evenodd" d="M68.9363 41.8928L66.2973 44.4694C64.8766 45.8562 64.8682 48.1138 66.2778 49.5114C66.2845 49.5176 66.2907 49.5241 66.2973 49.5306L68.9363 52.1069C70.357 53.4937 70.3655 55.7512 68.9558 57.1489C68.9492 57.1554 68.9426 57.1615 68.9363 57.168L59.9255 65.9653C58.5125 67.3449 56.2327 67.3449 54.8197 65.9653L37.9862 49.5306C36.5655 48.1434 36.5567 45.8862 37.9667 44.4886C37.973 44.4821 37.9796 44.4756 37.9862 44.4694L54.8197 28.0347C56.2327 26.6551 58.5125 26.6551 59.9255 28.0347L68.9363 36.8316C70.357 38.2188 70.3655 40.476 68.9558 41.8736C68.9492 41.8801 68.9426 41.8866 68.9363 41.8928Z" fill="white"/>
<path fill-rule="evenodd" clip-rule="evenodd" d="M37.1207 41.4727L34.4817 44.049C33.0613 45.4361 33.0525 47.6934 34.4622 49.091C34.4688 49.0975 34.4754 49.104 34.4817 49.1101L37.1207 51.6864C38.5414 53.0736 38.5502 55.3312 37.1401 56.7284C37.1335 56.7349 37.1273 56.7414 37.1207 56.7479L35.5604 58.2713C34.147 59.6509 31.8676 59.6509 30.4545 58.2713L21.0713 49.1101C19.6506 47.7234 19.6418 45.4658 21.0518 44.0681C21.0582 44.0616 21.0647 44.0555 21.0713 44.049L30.4545 34.8882C31.8676 33.5086 34.147 33.5086 35.5604 34.8882L37.1207 36.4116C38.5414 37.7987 38.5502 40.0559 37.1401 41.4536C37.1335 41.4601 37.1273 41.4666 37.1207 41.4727Z" fill="white"/>
<path fill-rule="evenodd" clip-rule="evenodd" d="M84.3152 34.8882L93.6981 44.049C95.1188 45.4361 95.1277 47.6934 93.718 49.091C93.7114 49.0975 93.7048 49.104 93.6981 49.1101L84.3152 58.2713C82.9019 59.6509 80.6224 59.6509 79.2095 58.2713L69.8262 49.1101C68.4055 47.7234 68.3967 45.4658 69.8067 44.0681C69.813 44.062 69.8196 44.0555 69.8262 44.049L79.2095 34.8882C80.6224 33.5086 82.9019 33.5086 84.3152 34.8882Z" fill="white"/>
<path d="M116.168 36.3369C117.447 36.3369 118.624 36.6545 119.698 37.2899C120.772 37.9033 121.629 38.7468 122.269 39.8203C122.908 40.8719 123.228 42.0659 123.228 43.4023C123.228 44.7168 122.908 45.9218 122.269 47.0172C121.629 48.0907 120.772 48.9452 119.698 49.5805C118.624 50.2159 117.447 50.5335 116.168 50.5335H110.101V59.3407H106.4V36.3369H116.168ZM116.099 47.1158C116.716 47.1158 117.276 46.9515 117.779 46.6229C118.281 46.2723 118.681 45.8232 118.978 45.2755C119.298 44.7059 119.458 44.0815 119.458 43.4023C119.458 42.3726 119.127 41.5072 118.464 40.8062C117.802 40.1051 117.013 39.7546 116.099 39.7546H110.101V47.1158H116.099Z" fill="white"/>
<path d="M127.916 59.3407V35.0224H131.447V59.3407H127.916Z" fill="white"/>
<path d="M153.595 42.0878V59.3407H150.031V56.6788C149.482 57.4018 148.671 58.081 147.597 58.7163C146.524 59.3517 145.278 59.6693 143.862 59.6693C142.354 59.6693 140.971 59.2859 139.715 58.5191C138.481 57.7524 137.498 56.6898 136.767 55.3315C136.036 53.9731 135.67 52.4176 135.67 50.665C135.67 48.9123 136.047 47.3678 136.801 46.0313C137.555 44.673 138.595 43.6214 139.92 42.8765C141.245 42.1097 142.753 41.7263 144.444 41.7263C145.701 41.7263 146.798 41.9892 147.735 42.515C148.694 43.0408 149.46 43.6543 150.031 44.3553V42.0878H153.595ZM144.684 56.5474C145.781 56.5474 146.741 56.2954 147.563 55.7915C148.386 55.2657 149.025 54.5647 149.482 53.6883C149.939 52.7901 150.168 51.7823 150.168 50.665C150.168 49.5696 149.939 48.5837 149.482 47.7073C149.025 46.831 148.386 46.1409 147.563 45.637C146.741 45.1112 145.781 44.8483 144.684 44.8483C143.633 44.8483 142.696 45.1002 141.874 45.6041C141.051 46.108 140.411 46.7981 139.954 47.6745C139.497 48.5508 139.269 49.5476 139.269 50.665C139.269 51.7823 139.497 52.7901 139.954 53.6883C140.411 54.5647 141.051 55.2657 141.874 55.7915C142.696 56.2954 143.633 56.5474 144.684 56.5474Z" fill="white"/>
<path d="M164.968 59.3407H161.437V45.3741H157.702V42.0878H161.437V37.6842H164.968V42.0878H169.149V45.3741H164.968V59.3407Z" fill="white"/>
<path d="M175.414 38.3415C174.614 38.3415 174.02 38.1443 173.632 37.75C173.243 37.3556 173.049 36.8408 173.049 36.2054C173.049 35.6577 173.243 35.1648 173.632 34.7266C174.02 34.2884 174.614 34.0693 175.414 34.0693C176.214 34.0693 176.808 34.2665 177.196 34.6609C177.584 35.0552 177.779 35.5701 177.779 36.2054C177.779 36.7531 177.584 37.2461 177.196 37.6842C176.808 38.1224 176.214 38.3415 175.414 38.3415ZM177.23 59.3407H173.7V42.0878H177.23V59.3407Z" fill="white"/>
<path d="M192.699 41.7263C194.321 41.7263 195.578 42.044 196.469 42.6793C197.36 43.3147 197.977 44.1691 198.319 45.2426C198.685 46.3161 198.868 47.5102 198.868 48.8247V59.3407H195.338V49.0547C195.338 48.2222 195.223 47.4773 194.995 46.82C194.766 46.1628 194.378 45.6479 193.83 45.2755C193.281 44.9031 192.516 44.7497 191.533 44.8154C190.619 44.8154 189.808 45.0016 189.1 45.3741C188.392 45.7465 187.832 46.2395 187.42 46.8529C187.009 47.4663 186.804 48.1455 186.804 48.8904V59.3407H183.273V42.0878H186.804V44.8154C187.352 44.0048 188.152 43.2928 189.203 42.6793C190.254 42.044 191.419 41.7263 192.699 41.7263Z" fill="white"/>
<path d="M216.612 52.4724V42.0878H220.142V59.3407H216.612V56.5802C216.087 57.3909 215.31 58.1138 214.282 58.7492C213.276 59.3626 212.065 59.6693 210.649 59.6693C208.775 59.6693 207.255 59.0559 206.09 57.829C204.925 56.6022 204.342 54.9043 204.342 52.7353V42.0878H207.872V51.8152C207.872 52.6915 208.009 53.5021 208.284 54.247C208.581 54.9919 209.038 55.5944 209.655 56.0544C210.294 56.4926 211.106 56.7117 212.088 56.7117C213.322 56.7117 214.384 56.3393 215.275 55.5944C216.167 54.8495 216.612 53.8088 216.612 52.4724Z" fill="white"/>
<path d="M234.93 41.7921C236.415 41.7921 237.604 42.1207 238.495 42.7779C239.386 43.4133 240.026 44.2896 240.414 45.4069C240.734 44.8592 241.202 44.3115 241.819 43.7638C242.436 43.1942 243.156 42.7232 243.978 42.3507C244.801 41.9783 245.681 41.7921 246.617 41.7921C248.171 41.7921 249.382 42.1207 250.25 42.7779C251.119 43.4133 251.724 44.2787 252.067 45.3741C252.433 46.4476 252.615 47.6526 252.615 48.989V59.3407H249.051V49.1862C249.051 47.9155 248.8 46.8858 248.297 46.0971C247.794 45.3084 246.846 44.914 245.452 44.914C244.127 44.914 243.03 45.3193 242.162 46.1299C241.317 46.9186 240.894 47.8826 240.894 49.0218V59.3407H237.329V49.1204C237.329 47.8936 237.055 46.8858 236.507 46.0971C235.958 45.3084 235.056 44.914 233.799 44.914C232.931 44.914 232.154 45.1002 231.469 45.4727C230.783 45.8451 230.246 46.3381 229.858 46.9515C229.469 47.543 229.275 48.2112 229.275 48.9561V59.3407H225.711V42.0878H229.275V44.8483C229.823 44.0596 230.589 43.3585 231.571 42.7451C232.577 42.1097 233.696 41.7921 234.93 41.7921Z" fill="white"/>
</svg>
